<svg width="24" height="24" viewBox="0 0 24 24" fill="none" xmlns="http://www.w3.org/2000/svg">
<path d="M19.0003 16.9975C17.3502 16.9975 16.0078 18.34 16.0078 19.9901C16.0078 21.6401 17.3503 22.9826 19.0003 22.9826C20.6504 22.9826 21.9928 21.6401 21.9928 19.9901C21.9928 18.34 20.6504 16.9975 19.0003 16.9975ZM19.0003 21.1871C18.3402 21.1871 17.8033 20.6502 17.8033 19.9901C17.8033 19.3299 18.3402 18.793 19.0003 18.793C19.6605 18.793 20.1973 19.3299 20.1973 19.9901C20.1973 20.6502 19.6605 21.1871 19.0003 21.1871Z" fill="white"/>
<path d="M23.8092 5.43167C23.6392 5.21412 23.3786 5.08723 23.1024 5.08723H5.54159L4.73361 1.70659C4.63695 1.30261 4.27573 1.01743 3.86037 1.01743H0.897755C0.401909 1.01738 0 1.41929 0 1.91513C0 2.41098 0.401909 2.81289 0.897755 2.81289H3.15175L6.06946 15.0212C6.16611 15.4255 6.52733 15.7104 6.9427 15.7104H20.9179C21.3305 15.7104 21.6902 15.4291 21.7893 15.0287L23.9738 6.20071C24.0399 5.93263 23.9792 5.64922 23.8092 5.43167ZM20.2155 13.9149H7.65131L5.97069 6.88274H21.9553L20.2155 13.9149Z" fill="white"/>
<path d="M8.14095 16.9975C6.49085 16.9975 5.14844 18.34 5.14844 19.9901C5.14844 21.6401 6.4909 22.9826 8.14095 22.9826C9.79101 22.9826 11.1335 21.6401 11.1335 19.9901C11.1335 18.34 9.79101 16.9975 8.14095 16.9975ZM8.14095 21.1871C7.48081 21.1871 6.94395 20.6502 6.94395 19.9901C6.94395 19.3299 7.48081 18.793 8.14095 18.793C8.8011 18.793 9.33796 19.3299 9.33796 19.9901C9.33796 20.6502 8.8011 21.1871 8.14095 21.1871Z" fill="white"/>
</svg>
