<svg width="42" height="42" viewBox="0 0 42 42" fill="none" xmlns="http://www.w3.org/2000/svg">
<g clip-path="url(#clip0_9977_1851)">
<path d="M21 42C9.4206 42 0 32.5794 0 21C0 9.4206 9.4206 0 21 0C32.5794 0 42 9.4206 42 21C42 32.5794 32.5794 42 21 42ZM21 2.1C10.5785 2.1 2.1 10.5785 2.1 21C2.1 31.4215 10.5785 39.9 21 39.9C31.4215 39.9 39.9 31.4215 39.9 21C39.9 10.5785 31.4215 2.1 21 2.1Z" fill="white"/>
<path d="M11.1284 31.92C10.8596 31.92 10.5908 31.8175 10.3859 31.6125C9.97554 31.2022 9.97554 30.5378 10.3859 30.1278L30.1259 10.3878C30.5362 9.97749 31.2007 9.97749 31.6106 10.3878C32.0209 10.7978 32.0209 11.4626 31.6106 11.8725L11.8706 31.6125C11.666 31.8175 11.3972 31.92 11.1284 31.92Z" fill="white"/>
<path d="M14.0944 18.7113C12.9112 18.7113 11.7281 18.2611 10.8276 17.3606C9.02622 15.5592 9.02622 12.6285 10.8276 10.8271C12.6294 9.02573 15.5606 9.02573 17.3615 10.8271C19.1629 12.6285 19.1629 15.5597 17.3615 17.3606C16.4602 18.2611 15.2775 18.7113 14.0944 18.7113ZM12.3119 15.8755C13.2947 16.8583 14.8932 16.8579 15.876 15.8755C16.8584 14.8931 16.8584 13.2942 15.876 12.3114C14.8936 11.329 13.2947 11.329 12.3123 12.3114C11.3299 13.2942 11.3299 14.8931 12.3119 15.8755Z" fill="white"/>
<path d="M27.9091 32.5238C26.7263 32.5238 25.5432 32.0735 24.6427 31.1726C23.77 30.3003 23.2891 29.1398 23.2891 27.9063C23.2891 26.6723 23.77 25.5119 24.6427 24.6395C25.5151 23.7668 26.6755 23.2859 27.9095 23.2859C29.1434 23.2859 30.3035 23.7668 31.1758 24.6395C32.9772 26.4409 32.9772 29.3717 31.1758 31.1731C30.2753 32.0735 29.0926 32.5238 27.9091 32.5238ZM27.9095 25.3859C27.2362 25.3859 26.6037 25.648 26.1274 26.1242C25.6511 26.6005 25.3891 27.2335 25.3891 27.9063C25.3891 28.5791 25.6511 29.2117 26.1274 29.6879C27.1098 30.6703 28.7083 30.6712 29.6911 29.6879C30.6735 28.7051 30.6735 27.1066 29.6911 26.1242C29.2153 25.648 28.5823 25.3859 27.9095 25.3859Z" fill="white"/>
</g>
<defs>
<clipPath id="clip0_9977_1851">
<rect width="42" height="42" fill="white"/>
</clipPath>
</defs>
</svg>
