<svg width="24" height="24" viewBox="0 0 24 24" fill="none" xmlns="http://www.w3.org/2000/svg">
<path d="M1.72787 15.4058C1.43051 15.6943 1.42318 16.1689 1.71176 16.4663L4.59604 19.4392C4.59622 19.4394 4.59649 19.4395 4.59668 19.4397C4.733 19.5807 4.92242 19.6699 5.13437 19.6699C5.34631 19.6699 5.53573 19.5807 5.67205 19.4397C5.67224 19.4395 5.67251 19.4394 5.6727 19.4392L8.5577 16.4663C8.84628 16.1689 8.83896 15.6943 8.54159 15.4058C8.24423 15.1172 7.76962 15.1245 7.48104 15.4219L5.88437 17.0674V5.08008C5.88437 4.66553 5.54892 4.33008 5.13437 4.33008C4.71981 4.33008 4.38437 4.66553 4.38437 5.08008V17.0672L2.78842 15.4219C2.49984 15.1245 2.02523 15.1172 1.72787 15.4058Z" fill="#5C835D"/>
<path d="M20.1621 9.69214C20.1621 9.27759 19.8267 8.94214 19.4121 8.94214H11.2734C10.8589 8.94214 10.5234 9.27759 10.5234 9.69214C10.5234 10.1067 10.8589 10.4421 11.2734 10.4421H19.4121C19.8267 10.4421 20.1621 10.1067 20.1621 9.69214Z" fill="#5C835D"/>
<path d="M17.822 14.3049C17.822 13.8904 17.4866 13.5549 17.072 13.5549H11.2734C10.8589 13.5549 10.5234 13.8904 10.5234 14.3049C10.5234 14.7195 10.8589 15.0549 11.2734 15.0549H17.072C17.4866 15.0549 17.822 14.7195 17.822 14.3049Z" fill="#5C835D"/>
<path d="M11.2734 18.1699C10.8589 18.1699 10.5234 18.5054 10.5234 18.9199C10.5234 19.3345 10.8589 19.6699 11.2734 19.6699H14.7319C15.1465 19.6699 15.4819 19.3345 15.4819 18.9199C15.4819 18.5054 15.1465 18.1699 14.7319 18.1699H11.2734Z" fill="#5C835D"/>
<path d="M21.7522 4.33008H11.2734C10.8589 4.33008 10.5234 4.66553 10.5234 5.08008C10.5234 5.49463 10.8589 5.83008 11.2734 5.83008H21.7522C22.1667 5.83008 22.5022 5.49463 22.5022 5.08008C22.5022 4.66553 22.1667 4.33008 21.7522 4.33008Z" fill="#5C835D"/>
</svg>
