<svg width="46" height="46" viewBox="0 0 46 46" fill="none" xmlns="http://www.w3.org/2000/svg">
<g clip-path="url(#clip0_9977_1857)">
<path fill-rule="evenodd" clip-rule="evenodd" d="M27.5251 24.3483C27.9156 23.9578 28.5488 23.9578 28.9393 24.3483L34.2079 29.6169C35.4184 30.8275 35.4184 32.79 34.2079 34.0006C32.9974 35.2111 31.0348 35.2111 29.8243 34.0006L25.621 29.7973C25.2305 29.4068 25.2305 28.7736 25.621 28.3831C26.0115 27.9926 26.6447 27.9926 27.0352 28.3831L31.2385 32.5864C31.668 33.0158 32.3642 33.0158 32.7937 32.5864C33.2232 32.1569 33.2232 31.4606 32.7937 31.0311L27.5251 25.7625C27.1346 25.372 27.1346 24.7388 27.5251 24.3483Z" fill="white"/>
<path fill-rule="evenodd" clip-rule="evenodd" d="M25.6205 28.383C26.0111 27.9925 26.6442 27.9925 27.0348 28.383L30.7832 32.1314C31.9937 33.342 31.9937 35.3046 30.7832 36.5151C29.5727 37.7256 27.6101 37.7256 26.3996 36.5151L23.6991 33.8146C23.3086 33.4241 23.3086 32.791 23.6991 32.4004C24.0897 32.0099 24.7228 32.0099 25.1134 32.4004L27.8138 35.1009C28.2433 35.5303 28.9395 35.5303 29.369 35.1009C29.7985 34.6714 29.7985 33.9751 29.369 33.5457L25.6205 29.7972C25.23 29.4067 25.23 28.7735 25.6205 28.383Z" fill="white"/>
<path fill-rule="evenodd" clip-rule="evenodd" d="M23.7057 32.4003C24.0962 32.0098 24.7294 32.0098 25.1199 32.4003L26.7664 34.0469C27.977 35.2574 27.977 37.22 26.7664 38.4305C25.5559 39.641 23.5933 39.641 22.3828 38.4305L21.6132 37.6609C21.2227 37.2704 21.2227 36.6372 21.6132 36.2467C22.0037 35.8562 22.6369 35.8562 23.0274 36.2467L23.797 37.0163C24.2265 37.4458 24.9228 37.4458 25.3522 37.0163C25.7817 36.5868 25.7817 35.8906 25.3522 35.4611L23.7057 33.8145C23.3151 33.424 23.3151 32.7908 23.7057 32.4003Z" fill="white"/>
<path fill-rule="evenodd" clip-rule="evenodd" d="M22.5144 13.6065C24.9872 12.2386 27.9326 12.0129 30.585 12.988L30.585 12.9881C32.009 13.5116 33.5859 13.4243 34.9434 12.747C34.9434 12.747 34.9435 12.747 34.9435 12.7469L35.3889 12.5246C35.8831 12.278 36.4836 12.4786 36.7303 12.9728C36.9769 13.467 36.7762 14.0675 36.2821 14.3141L35.8365 14.5365L35.8365 14.5365C33.9859 15.4599 31.8361 15.579 29.8949 14.8652L30.24 13.9266L29.8949 14.8652C27.7874 14.0904 25.4472 14.2697 23.4825 15.3565C23.4825 15.3565 23.4825 15.3565 23.4825 15.3565L19.5718 17.5199L19.5718 17.5199C18.8111 17.9407 18.5795 18.926 19.0733 19.6416M22.5144 13.6065L22.5144 13.6065ZM22.5144 13.6065L18.6037 15.7698ZM18.6037 15.7698C16.8082 16.763 16.2618 19.0887 17.4271 20.7775L17.4272 20.7775C18.3255 22.0793 19.9904 22.6092 21.4759 22.0657C21.4759 22.0657 21.4759 22.0657 21.4759 22.0657L26.401 20.2638M18.6037 15.7698C18.6037 15.7698 18.6037 15.7698 18.6037 15.7698Z" fill="white"/>
<path fill-rule="evenodd" clip-rule="evenodd" d="M15.4133 12.9884C18.0657 12.0131 21.011 12.2388 23.4839 13.6068C23.9672 13.8741 24.1423 14.4826 23.8749 14.9659C23.6076 15.4491 22.9991 15.6242 22.5158 15.3568C20.551 14.2699 18.2109 14.0906 16.1035 14.8655C14.1622 15.5793 12.0126 15.4603 10.1619 14.5368L9.73337 14.323C9.2392 14.0764 9.03853 13.4758 9.28514 12.9817C9.53176 12.4875 10.1323 12.2868 10.6264 12.5334L11.0548 12.7472C11.0549 12.7472 11.0548 12.7472 11.0548 12.7472C12.4125 13.4246 13.9894 13.5119 15.4133 12.9884Z" fill="white"/>
<path fill-rule="evenodd" clip-rule="evenodd" d="M41.2752 24.7714C41.5347 25.2589 41.3498 25.8645 40.8623 26.1239L37.0481 28.1538C36.5606 28.4132 35.955 28.2283 35.6956 27.7408C35.4361 27.2533 35.621 26.6477 36.1085 26.3882L39.9227 24.3584C40.4102 24.0989 41.0158 24.2838 41.2752 24.7714Z" fill="white"/>
<path fill-rule="evenodd" clip-rule="evenodd" d="M5.03643 23.7976C5.37932 23.3647 6.00826 23.2917 6.44121 23.6346L9.6179 26.1505C10.0509 26.4934 10.1239 27.1223 9.78097 27.5552C9.43808 27.9882 8.80914 28.0612 8.37619 27.7183L5.1995 25.2024C4.76655 24.8595 4.69354 24.2306 5.03643 23.7976Z" fill="white"/>
<path fill-rule="evenodd" clip-rule="evenodd" d="M17.1341 27.2115C16.7046 26.782 16.0083 26.782 15.5789 27.2115L13.3768 29.4136C12.9473 29.8431 12.9473 30.5393 13.3768 30.9688C13.8063 31.3983 14.5025 31.3983 14.932 30.9688L17.1341 28.7667C17.5636 28.3372 17.5636 27.641 17.1341 27.2115ZM14.1647 25.7973C15.3752 24.5868 17.3378 24.5868 18.5483 25.7973C19.7588 27.0078 19.7588 28.9704 18.5483 30.1809L16.3462 32.383C15.1357 33.5935 13.1731 33.5935 11.9626 32.383C10.7521 31.1725 10.7521 29.2099 11.9626 27.9994L14.1647 25.7973L14.8718 26.5044L14.1647 25.7973Z" fill="white"/>
<path fill-rule="evenodd" clip-rule="evenodd" d="M20.1028 30.1808C19.6734 29.7513 18.9771 29.7513 18.5476 30.1808L16.3455 32.3828C15.9161 32.8123 15.9161 33.5086 16.3455 33.938C16.775 34.3675 17.4713 34.3675 17.9008 33.938L20.1028 31.736C20.5323 31.3065 20.5323 30.6102 20.1028 30.1808ZM17.1334 28.7665C18.3439 27.556 20.3065 27.556 21.517 28.7665C22.7276 29.9771 22.7276 31.9396 21.517 33.1502L19.315 35.3522C18.1044 36.5628 16.1419 36.5628 14.9313 35.3522C13.7208 34.1417 13.7208 32.1791 14.9313 30.9686L17.1334 28.7665Z" fill="white"/>
<path fill-rule="evenodd" clip-rule="evenodd" d="M22.1455 34.0824C21.716 33.6529 21.0198 33.6529 20.5903 34.0824L19.8143 34.8583C19.3848 35.2878 19.3848 35.9841 19.8143 36.4136C20.2438 36.843 20.94 36.843 21.3695 36.4136L22.0123 37.0564L21.3695 36.4136L22.1455 35.6376C22.575 35.2081 22.575 34.5118 22.1455 34.0824ZM19.1761 32.6682C20.3866 31.4576 22.3492 31.4576 23.5597 32.6682C24.7702 33.8787 24.7702 35.8413 23.5597 37.0518L22.7837 37.8278C21.5732 39.0383 19.6106 39.0383 18.4001 37.8278C17.1896 36.6172 17.1896 34.6547 18.4001 33.4441L19.1761 32.6682Z" fill="white"/>
<path fill-rule="evenodd" clip-rule="evenodd" d="M9.97398 24.0496C11.1845 22.8392 13.147 22.8392 14.3575 24.0496C15.5681 25.2602 15.5681 27.2228 14.3576 28.4333L13.3775 29.4134C12.1669 30.6239 10.2044 30.6239 8.99383 29.4134C7.78331 28.2029 7.78331 26.2403 8.99383 25.0298L9.97398 24.0496ZM11.3881 25.4639C11.3881 25.4639 11.3881 25.4639 11.3881 25.4639L10.408 26.444C9.97857 26.8735 9.97857 27.5697 10.408 27.9992C10.8375 28.4287 11.5338 28.4287 11.9633 27.9992L12.9434 27.0191C13.3728 26.5896 13.3728 25.8934 12.9434 25.4639C12.9434 25.4639 12.9434 25.4639 12.9434 25.4639M11.3881 25.4639C11.8176 25.0345 12.5139 25.0345 12.9434 25.4639Z" fill="white"/>
<path fill-rule="evenodd" clip-rule="evenodd" d="M42.6669 6.76471C42.9561 6.90752 43.1587 7.1811 43.211 7.49944L46.0863 25.0212C46.1644 25.4971 45.8918 25.9609 45.438 26.1241L41.512 27.5364C41.0059 27.7185 40.4464 27.4675 40.2457 26.9684L34.1661 11.8461C33.9757 11.3726 34.1724 10.8318 34.6225 10.5912L41.7527 6.77948C42.0372 6.6274 42.3776 6.62189 42.6669 6.76471ZM36.3563 11.9322L41.7419 25.3282L43.978 24.5239L41.4636 9.20189L36.3563 11.9322Z" fill="white"/>
<path fill-rule="evenodd" clip-rule="evenodd" d="M3.33118 6.76471C3.62044 6.62189 3.96083 6.6274 4.24533 6.77948L11.3756 10.5912C11.8256 10.8318 12.0223 11.3726 11.832 11.8461L5.75234 26.9684C5.55169 27.4675 4.99219 27.7185 4.48603 27.5364L0.560037 26.1241C0.106272 25.9609 -0.166369 25.4971 -0.0882784 25.0212L2.78708 7.49944C2.83932 7.1811 3.04192 6.90752 3.33118 6.76471ZM4.53446 9.20189L2.02009 24.5239L4.25617 25.3282L9.6418 11.9322L4.53446 9.20189Z" fill="white"/>
</g>
<defs>
<clipPath id="clip0_9977_1857">
<rect width="46" height="46" fill="white"/>
</clipPath>
</defs>
</svg>
