<svg width="20" height="20" viewBox="0 0 20 20" fill="none" xmlns="http://www.w3.org/2000/svg">
<g clip-path="url(#clip0_9975_858)">
<path d="M9.9974 5C9.33813 5 8.69366 5.1955 8.1455 5.56177C7.59733 5.92804 7.17009 6.44863 6.9178 7.05772C6.66551 7.66681 6.5995 8.33703 6.72811 8.98363C6.85673 9.63024 7.1742 10.2242 7.64037 10.6904C8.10655 11.1565 8.70049 11.474 9.3471 11.6026C9.9937 11.7312 10.6639 11.6652 11.273 11.4129C11.8821 11.1606 12.4027 10.7334 12.769 10.1852C13.1352 9.63707 13.3307 8.9926 13.3307 8.33333C13.3307 7.44928 12.9795 6.60143 12.3544 5.97631C11.7293 5.35119 10.8815 5 9.9974 5ZM9.9974 10C9.66776 10 9.34553 9.90225 9.07145 9.71912C8.79737 9.53598 8.58374 9.27568 8.4576 8.97114C8.33145 8.6666 8.29845 8.33148 8.36276 8.00818C8.42706 7.68488 8.5858 7.38791 8.81889 7.15482C9.05197 6.92173 9.34895 6.763 9.67225 6.69869C9.99555 6.63438 10.3307 6.66739 10.6352 6.79353C10.9397 6.91968 11.2 7.1333 11.3832 7.40738C11.5663 7.68147 11.6641 8.0037 11.6641 8.33333C11.6641 8.77536 11.4885 9.19928 11.1759 9.51184C10.8633 9.82441 10.4394 10 9.9974 10Z" fill="white"/>
<path d="M9.99636 20C9.29464 20.0036 8.60228 19.839 7.97724 19.52C7.3522 19.2011 6.81268 18.737 6.40385 18.1667C3.22802 13.7858 1.61719 10.4925 1.61719 8.37749C1.61719 6.1552 2.49999 4.02392 4.07139 2.45252C5.64279 0.881124 7.77406 -0.00167847 9.99636 -0.00167847C12.2186 -0.00167847 14.3499 0.881124 15.9213 2.45252C17.4927 4.02392 18.3755 6.1552 18.3755 8.37749C18.3755 10.4925 16.7647 13.7858 13.5889 18.1667C13.18 18.737 12.6405 19.2011 12.0155 19.52C11.3904 19.839 10.6981 20.0036 9.99636 20ZM9.99636 1.81749C8.2567 1.81947 6.58887 2.51143 5.35875 3.74155C4.12863 4.97167 3.43667 6.6395 3.43469 8.37916C3.43469 10.0542 5.01219 13.1517 7.87552 17.1008C8.1186 17.4356 8.4375 17.7081 8.80612 17.896C9.17474 18.0839 9.58261 18.1819 9.99636 18.1819C10.4101 18.1819 10.818 18.0839 11.1866 17.896C11.5552 17.7081 11.8741 17.4356 12.1172 17.1008C14.9805 13.1517 16.558 10.0542 16.558 8.37916C16.556 6.6395 15.8641 4.97167 14.634 3.74155C13.4038 2.51143 11.736 1.81947 9.99636 1.81749Z" fill="white"/>
</g>
<defs>
<clipPath id="clip0_9975_858">
<rect width="20" height="20" fill="white"/>
</clipPath>
</defs>
</svg>
