<svg width="42" height="42" viewBox="0 0 42 42" fill="none" xmlns="http://www.w3.org/2000/svg">
<g clip-path="url(#clip0_9977_1844)">
<path d="M41.8465 0.50316C41.6558 0.19068 41.316 0 40.9498 0H24.5324C24.1389 0 23.7789 0.21966 23.5987 0.5691L20.9998 5.6154L18.4012 0.56952C18.2211 0.21966 17.8607 0.00042 17.4676 0.00042H1.04978C0.683543 0.00042 0.343763 0.1911 0.153503 0.50358C-0.0371769 0.81648 -0.0510369 1.2054 0.116543 1.5309L8.63918 18.0772C8.66312 18.1238 8.69756 18.16 8.72696 18.2015C6.96926 20.6665 5.93102 23.6779 5.93102 26.9291C5.9306 35.2393 12.6905 42 20.9998 42C29.3086 42 36.069 35.2393 36.069 26.9296C36.069 23.6867 35.0362 20.6829 33.2873 18.2217L41.8834 1.5309C42.051 1.2054 42.0367 0.81606 41.8465 0.50316ZM2.77178 2.10042H16.8275L21.8675 11.886C21.5798 11.8696 21.2908 11.8595 20.9998 11.8595C16.7523 11.8595 12.9127 13.629 10.1705 16.4661L2.77178 2.10042ZM20.9998 39.9C13.8484 39.9 8.0306 34.0813 8.0306 26.9296C8.0306 19.7778 13.8484 13.9591 20.9998 13.9591C28.1507 13.9591 33.969 19.7778 33.969 26.9296C33.969 34.0813 28.1507 39.9 20.9998 39.9ZM31.8291 16.4661C29.8467 14.4148 27.2901 12.9247 24.4198 12.256L22.1758 7.89852C22.1922 7.87206 22.2119 7.84896 22.2262 7.8204L25.1729 2.1H39.2278L31.8291 16.4661Z" fill="white"/>
<path d="M28.7943 23.6448L24.0613 22.9568L21.9445 18.6665C21.7673 18.3083 21.4023 18.0811 21.0029 18.0811C20.6035 18.0811 20.2381 18.3083 20.0613 18.6665L17.9449 22.9564L13.2115 23.6444C12.8158 23.7019 12.4874 23.9787 12.3639 24.3588C12.2404 24.7389 12.3433 25.156 12.6294 25.4353L16.0545 28.7738L15.246 33.4883C15.1783 33.8823 15.3405 34.2805 15.6639 34.5152C15.9868 34.7504 16.4157 34.7811 16.7697 34.595L21.0029 32.3695L25.2365 34.5955C25.3898 34.6761 25.5578 34.716 25.725 34.716C25.9425 34.716 26.1592 34.6484 26.3424 34.5152C26.6658 34.28 26.8275 33.8823 26.7598 33.4883L25.9513 28.7743L29.376 25.4357C29.6625 25.1568 29.7654 24.7397 29.6419 24.3592C29.5184 23.9787 29.1895 23.7023 28.7943 23.6448ZM24.0903 27.6558C23.8429 27.8969 23.73 28.2442 23.7883 28.5853L24.3306 31.7466L21.4914 30.2539C21.3385 30.1737 21.1705 30.1334 21.0029 30.1334C20.8353 30.1334 20.6673 30.1737 20.514 30.2539L17.6752 31.7466L18.2175 28.5853C18.2758 28.2442 18.1633 27.8969 17.9155 27.6558L15.6189 25.4172L18.7929 24.9556C19.1347 24.9061 19.4308 24.691 19.5837 24.3815L21.0029 21.5045L22.4225 24.3815C22.5754 24.691 22.8711 24.9061 23.2134 24.9556L26.3873 25.4172L24.0903 27.6558Z" fill="white"/>
</g>
<defs>
<clipPath id="clip0_9977_1844">
<rect width="42" height="42" fill="white"/>
</clipPath>
</defs>
</svg>
