<svg width="42" height="42" viewBox="0 0 42 42" fill="none" xmlns="http://www.w3.org/2000/svg">
<g clip-path="url(#clip0_9977_1840)">
<path d="M42 12.8004C42 10.4488 40.0869 8.53616 37.7358 8.53616C37.1558 8.53616 36.6858 9.00614 36.6858 9.58616C36.6858 10.1662 37.1558 10.6362 37.7358 10.6362C38.9294 10.6362 39.9 11.6072 39.9 12.8004C39.9 13.9941 38.929 14.9651 37.7358 14.9651C37.7303 14.9651 37.7257 14.9668 37.7202 14.9668C35.9688 12.5808 33.4484 10.5942 30.3761 9.29384C30.5584 8.65124 30.66 7.98092 30.66 7.29506C30.66 3.21686 27.342 -0.101562 23.2638 -0.101562C19.1852 -0.101562 15.8672 3.21644 15.8672 7.29506C15.8672 7.7138 15.9067 8.12666 15.9752 8.53112C15.8748 8.56094 15.7719 8.58698 15.6723 8.61806C15.5342 8.66132 15.3939 8.7071 15.2481 8.7575C13.7865 7.26062 10.8625 4.9712 7.40043 6.0401C7.11651 6.12788 6.88299 6.33158 6.75783 6.60122C6.63267 6.87086 6.62763 7.18082 6.74397 7.45424C7.70829 9.72182 8.35467 12.2859 8.11863 12.8895C7.88385 13.1305 7.59027 13.4224 7.27905 13.7316C6.57765 14.4288 5.78217 15.2192 5.33193 15.7543C4.98921 16.1432 2.93625 16.5397 1.02483 16.5859C0.451535 16.601 -0.00458521 17.0722 3.47882e-05 17.6455L0.0579948 24.5314C0.0605148 24.8158 0.178115 25.0867 0.383495 25.2828L6.62049 31.2241C6.72549 31.3627 6.83301 31.4997 6.94347 31.6353L10.7407 41.4448C10.8974 41.8493 11.2863 42.116 11.7201 42.116H15.3779C15.905 42.116 16.3506 41.725 16.4191 41.2021L16.8756 37.7127C20.2361 38.5489 23.898 38.5552 27.2618 37.7316L27.7163 41.2021C27.7847 41.725 28.2303 42.116 28.7574 42.116H32.4152C32.8487 42.116 33.238 41.8493 33.3942 41.4448L37.1222 31.8138C39.2994 29.2212 40.4486 26.177 40.4486 22.998C40.4486 20.8644 39.9084 18.7913 38.9214 16.8937C40.6972 16.3784 42 14.74 42 12.8004ZM23.2638 1.99844C26.1841 1.99844 28.56 4.37438 28.56 7.29506C28.56 9.4694 27.2013 11.4501 25.1761 12.2347C24.1748 12.0339 23.1462 11.9268 22.1067 11.9268C21.6338 11.9268 21.1655 11.9545 20.7002 11.9957L20.7275 11.9453C19.0248 11.0146 17.9672 9.23252 17.9672 7.29422C17.9668 4.3748 20.3432 1.99844 23.2638 1.99844ZM35.4111 30.5845C35.333 30.6752 35.2712 30.7785 35.228 30.8902L31.6958 40.016H29.6789L29.1871 36.2625C29.1468 35.9559 28.9737 35.682 28.7133 35.5153C28.4529 35.3481 28.1325 35.3049 27.8368 35.3956C26.0043 35.9605 24.0765 36.2469 22.1063 36.2469C20.1113 36.2469 18.1596 35.9529 16.3049 35.3729C16.0083 35.2805 15.687 35.3233 15.4258 35.4901C15.1646 35.6568 14.9903 35.9311 14.9499 36.2385L14.4556 40.0156H12.4383L8.84019 30.7193C8.79903 30.613 8.74065 30.5143 8.66799 30.4266C8.52225 30.2514 8.38155 30.0733 8.24631 29.8927C8.21145 29.8465 8.17281 29.8029 8.13081 29.7625L2.15421 24.069L2.10843 18.6351C3.63849 18.5208 6.04299 18.1714 6.93801 17.1079C7.32861 16.6438 8.08881 15.8883 8.75955 15.2217C9.10059 14.8828 9.42105 14.564 9.68565 14.2906C10.8071 13.0827 10.0179 10.1158 9.17157 7.86542C11.322 7.84106 13.1704 9.53954 14.1591 10.6723C14.4476 11.002 14.9105 11.1187 15.32 10.9638C15.6929 10.8235 16.0041 10.7147 16.2998 10.6223C16.404 10.5895 16.5107 10.5622 16.6157 10.5316C16.9664 11.2519 17.4334 11.9125 17.9996 12.4867C17.8345 12.532 17.6669 12.5698 17.5035 12.6211C16.8992 12.8101 16.3065 13.039 15.7421 13.3011C15.2162 13.5455 14.9877 14.1696 15.2322 14.6959C15.4766 15.2217 16.1007 15.4498 16.627 15.2058C17.1079 14.9823 17.614 14.787 18.131 14.6253C20.4146 13.9096 22.9934 13.837 25.3332 14.4153C26.6637 14.7446 27.8939 15.27 28.9889 15.9773C29.1653 16.0911 29.3627 16.1453 29.5575 16.1453C29.9019 16.1453 30.2396 15.9756 30.4408 15.6644C30.7554 15.1772 30.6151 14.5275 30.1283 14.2129C29.4278 13.7605 28.6785 13.3775 27.8943 13.0549C28.5361 12.5354 29.0829 11.9121 29.5193 11.2174C34.8924 13.4775 38.3486 18.0622 38.3486 22.9976C38.3486 25.7251 37.3326 28.3488 35.4111 30.5845Z" fill="white"/>
<path d="M11.1047 18.5888C11.6846 18.5888 12.1547 18.1187 12.1547 17.5388C12.1547 16.9589 11.6846 16.4888 11.1047 16.4888C10.5248 16.4888 10.0547 16.9589 10.0547 17.5388C10.0547 18.1187 10.5248 18.5888 11.1047 18.5888Z" fill="white"/>
</g>
<defs>
<clipPath id="clip0_9977_1840">
<rect width="42" height="42" fill="white"/>
</clipPath>
</defs>
</svg>
