<svg width="42" height="42" viewBox="0 0 42 42" fill="none" xmlns="http://www.w3.org/2000/svg">
<g clip-path="url(#clip0_9977_1848)">
<path d="M40.9508 39.612H14.5354C13.9553 39.612 13.4854 39.142 13.4854 38.562C13.4854 38.3969 13.4686 38.1449 13.4497 37.835C13.2964 35.3477 13.2493 32.593 14.6437 31.3766C16.766 29.5261 19.2797 28.1918 22.3289 27.298L23.3197 27.0091C24.8938 26.5508 26.145 26.1871 26.4008 25.9561C26.4415 25.7919 26.4802 25.6441 26.5167 25.5063C26.5465 25.3933 26.5822 25.2581 26.6099 25.1434C25.9972 24.4928 24.8207 23.0279 24.6011 21.5596C24.3705 20.0014 24.2004 19.5158 24.1492 19.3957C24.1324 19.3819 24.1147 19.3688 24.0962 19.3546C23.7153 19.0551 23.3037 18.6716 22.8308 17.5813C22.1466 16.0055 21.9017 14.7837 22.0832 13.8475C22.2302 13.0861 22.5548 12.6673 22.8921 12.4216C22.8892 12.2116 22.8866 11.9693 22.8866 11.7038C22.8866 10.3519 23.8883 5.72556 26.9552 3.57306C28.828 2.25888 31.0846 2.03754 33.6693 2.91534C35.2351 2.8011 36.7076 3.31812 37.9449 4.4202C40.0218 6.27072 41.1088 9.45054 41.1088 11.6345C41.1088 11.845 41.1113 12.0285 41.1134 12.1885C41.1146 12.2826 41.1159 12.3695 41.1163 12.451C41.3624 12.6173 41.6279 12.8853 41.8156 13.3334C42.3339 14.5695 41.5951 16.6355 41.1079 17.7569C40.6266 18.8674 40.1885 19.213 39.7807 19.4533C39.6635 19.7557 39.4666 20.5936 39.359 21.5247C39.1801 23.0632 38.0218 24.4941 37.3304 25.177C37.3565 25.2795 37.3892 25.3967 37.4165 25.4958C37.4619 25.6588 37.511 25.8343 37.5572 26.0216C37.8185 26.2304 38.984 26.5563 40.3276 26.9326L41.2364 27.1876C41.7946 27.3455 42.1193 27.9259 41.9618 28.4837C41.8039 29.0419 41.2259 29.3653 40.6657 29.209L39.7618 28.9549C36.9113 28.1573 35.8449 27.8587 35.524 26.5466C35.4816 26.3732 35.4362 26.2106 35.3942 26.0607C35.1947 25.3467 34.9469 24.4584 35.6819 23.8444C36.0637 23.5243 37.1528 22.3202 37.2733 21.2836C37.3157 20.9191 37.5497 19.0585 38.023 18.2823C38.2465 17.9148 38.5262 17.7539 38.6933 17.6578C38.7891 17.6027 38.9197 17.5271 39.1818 16.9223C39.8278 15.4347 39.934 14.4599 39.8857 14.1789C38.9999 13.8479 38.9764 13.1125 39.0083 12.8072C39.0197 12.6988 39.0172 12.475 39.0138 12.2162C39.0117 12.0487 39.0092 11.8563 39.0092 11.6354C39.0092 10.2011 38.2456 7.50132 36.5484 5.9889C35.6933 5.22702 34.7231 4.90404 33.6596 5.02584C33.4975 5.04474 33.335 5.02542 33.1817 4.9704C31.156 4.23792 29.5147 4.34376 28.1618 5.29296C25.7809 6.96414 24.9866 10.8189 24.9866 11.7047C24.9866 12.0365 24.9908 12.3313 24.9942 12.569C24.9967 12.7383 24.9988 12.8803 24.9988 12.9878C24.9988 13.2301 24.9182 13.8164 24.1802 14.1067C24.1702 14.1382 24.1571 14.1839 24.1454 14.2469C24.1109 14.4242 24.0542 15.126 24.7577 16.7459C25.0593 17.4406 25.2374 17.5809 25.3945 17.7044C25.5373 17.8169 25.7531 17.9862 25.9337 18.2819C26.1345 18.6128 26.3785 19.2218 26.6784 21.2513C26.8254 22.2316 27.9518 23.5726 28.274 23.8448C28.9762 24.4235 28.7486 25.285 28.5474 26.0443C28.5125 26.1762 28.4747 26.3182 28.4374 26.4702C28.114 27.8024 27.0539 28.1107 23.9068 29.0267L22.9198 29.3149C20.1676 30.1217 17.9122 31.3141 16.0238 32.9609C15.3338 33.5632 15.464 36.3469 15.5337 37.5141H40.9513C41.5313 37.5141 42.0013 37.9841 42.0013 38.5641C42.0013 39.1441 41.5309 39.612 40.9508 39.612ZM26.9035 25.4341C26.9128 25.4429 26.9228 25.4513 26.9325 25.4597C26.9241 25.4521 26.914 25.4437 26.9035 25.4341Z" fill="white"/>
<path d="M10.1539 36.9338H1.05C0.46998 36.9338 0 36.4639 0 35.8838C0 29.84 4.74054 27.6875 6.77838 27.0428C8.25594 26.5754 8.57178 25.7135 8.6331 25.4607C8.6919 25.2217 8.73306 25.0247 8.76204 24.866C7.29792 24.53 4.32096 23.7572 4.09836 21.3745C4.06812 21.0507 4.15506 20.8432 4.44234 20.1578C4.92156 19.015 5.91864 16.6365 5.9409 14.5915C5.94846 13.8989 6.5436 9.99588 9.1875 8.16216C10.214 7.44984 11.9536 6.7938 14.4682 7.63002C15.6408 7.5582 16.7391 7.92402 17.669 8.69892C19.357 10.1059 20.2537 12.6822 20.3725 14.4811C20.5611 17.3379 21.4049 18.944 21.8585 19.8075C22.1 20.2682 22.26 20.5727 22.26 20.9554C22.26 23.3695 19.7677 24.0361 18.5699 24.3565C18.4271 24.3947 18.2419 24.4439 18.1356 24.4787C17.7967 24.7412 17.3166 24.7774 16.9323 24.5354C16.4422 24.2259 16.296 23.577 16.606 23.0869C16.8945 22.6307 17.3695 22.5035 18.0277 22.3275C19.2927 21.9894 20.0588 21.6698 20.1508 21.0788C20.1109 20.9974 20.0508 20.8827 19.9991 20.7844C19.5107 19.855 18.4947 17.9209 18.2767 14.6197C18.2045 13.5235 17.6106 11.3844 16.3246 10.3126C15.7647 9.84636 15.1553 9.6582 14.4572 9.73884C14.2955 9.75816 14.1322 9.73842 13.9793 9.6834C12.5198 9.15546 11.3442 9.22266 10.3841 9.88794C8.53356 11.1715 8.0451 14.2253 8.0409 14.6146C8.01402 17.0704 6.90984 19.7042 6.37896 20.9696C6.32562 21.0969 6.26808 21.2338 6.22566 21.3397C6.54066 22.2099 8.67972 22.6946 9.41052 22.8601C9.96702 22.9865 10.2211 23.044 10.4693 23.2511C11.0754 23.7538 11.009 24.5909 10.673 25.9592C10.5466 26.4796 9.93594 28.2461 7.41216 29.0454C5.59104 29.6212 2.63718 31.1206 2.16468 34.8338H10.1539C10.7339 34.8338 11.2039 35.3038 11.2039 35.8838C11.2039 36.4639 10.7339 36.9338 10.1539 36.9338ZM18.3809 24.2087C18.3809 24.2091 18.3805 24.2095 18.38 24.2099C18.3805 24.2095 18.3805 24.2091 18.3809 24.2087Z" fill="white"/>
</g>
<defs>
<clipPath id="clip0_9977_1848">
<rect width="42" height="42" fill="white"/>
</clipPath>
</defs>
</svg>
