<svg width="75" height="49" viewBox="0 0 75 49" fill="none" xmlns="http://www.w3.org/2000/svg">
<path fill-rule="evenodd" clip-rule="evenodd" d="M0.622947 0C0.301399 1.14324 0.140625 2.35129 0.140625 3.62415C0.140625 5.39924 0.434196 7.0634 1.02134 8.6166C1.60848 10.0958 2.3791 11.4272 3.33321 12.6106C4.3607 13.72 5.53499 14.6075 6.85605 15.2732C8.17712 15.8649 9.57158 16.1608 11.0394 16.1608C12.4339 16.1608 13.5348 15.9758 14.3421 15.606C15.2228 15.2362 15.9934 14.8294 16.654 14.3857C17.3145 13.9419 17.9383 13.5351 18.5255 13.1653C19.1126 12.7955 19.8466 12.6106 20.7273 12.6106C21.7548 12.6106 22.5988 13.2392 23.2593 14.4966C23.9199 15.68 24.2501 17.0853 24.2501 18.7125C24.2501 21.4491 23.6263 24.1117 22.3786 26.7004C21.1309 29.2891 19.4062 31.7298 17.2044 34.0226C15.0026 36.2415 12.4339 38.2015 9.49819 39.9026C6.56248 41.6038 3.4433 42.9351 0.140625 43.8966V49C4.76436 48.7042 9.16792 47.6317 13.3513 45.7826C17.5347 43.8596 21.1676 41.3449 24.2501 38.2385C27.406 35.0581 29.9014 31.36 31.7362 27.1441C33.6444 22.9283 34.5985 18.3057 34.5985 13.2762C34.5985 10.0958 34.0847 7.13736 33.0572 4.40075C32.5194 2.81631 31.8532 1.34939 31.0588 0H0.622947ZM40.4133 0C40.0596 1.14324 39.8828 2.35129 39.8828 3.62415C39.8828 5.39924 40.1763 7.0634 40.7635 8.6166C41.3506 10.0958 42.1212 11.4272 43.0753 12.6106C44.1028 13.72 45.2771 14.6075 46.5982 15.2732C47.9193 15.8649 49.3504 16.1608 50.8917 16.1608C52.2861 16.1608 53.387 15.9758 54.1943 15.606C55.075 15.2362 55.8457 14.8294 56.5062 14.3857C57.1667 13.9419 57.7906 13.5351 58.3777 13.1653C58.9649 12.7955 59.6988 12.6106 60.5795 12.6106C61.607 12.6106 62.4143 13.2392 63.0014 14.4966C63.662 15.68 63.9923 17.0853 63.9923 18.7125C63.9923 21.4491 63.3684 24.1117 62.1207 26.7004C60.8731 29.2891 59.1483 31.7298 56.9466 34.0226C54.8182 36.2415 52.2861 38.2015 49.3504 39.9026C46.4147 41.6038 43.2588 42.9351 39.8828 43.8966V49C44.5065 48.7042 48.9101 47.6317 53.0934 45.7826C57.2768 43.8596 60.9465 41.3449 64.1023 38.2385C67.2582 35.0581 69.7536 31.36 71.5884 27.1441C73.4232 22.9283 74.3406 18.3057 74.3406 13.2762C74.3406 10.0958 73.8269 7.13736 72.7994 4.40075C72.2615 2.81631 71.5953 1.34939 70.8009 0H40.4133Z" fill="#9BB67F"/>
</svg>
