<svg width="26" height="26" viewBox="0 0 26 26" fill="none" xmlns="http://www.w3.org/2000/svg">
<path d="M11.8494 2.09225C6.4775 2.09225 2.10156 6.46818 2.10156 11.8401C2.10156 17.2121 6.4775 21.5965 11.8494 21.5965C14.144 21.5965 16.2542 20.7924 17.922 19.4573L21.9824 23.5156C22.1873 23.712 22.461 23.8204 22.7448 23.8175C23.0287 23.8146 23.3001 23.7007 23.5009 23.5001C23.7018 23.2995 23.8161 23.0283 23.8194 22.7445C23.8227 22.4607 23.7147 22.1868 23.5186 21.9817L19.4582 17.9213C20.7944 16.2509 21.5994 14.1373 21.5994 11.8401C21.5994 6.46818 17.2214 2.09225 11.8494 2.09225ZM11.8494 4.25895C16.0504 4.25895 19.4307 7.63916 19.4307 11.8401C19.4307 16.0411 16.0504 19.4298 11.8494 19.4298C7.64846 19.4298 4.26823 16.0411 4.26823 11.8401C4.26823 7.63916 7.64846 4.25895 11.8494 4.25895Z" fill="#5C835D"/>
</svg>
