<svg width="52" height="50" viewBox="0 0 52 50" fill="none" xmlns="http://www.w3.org/2000/svg">
<path d="M49.3359 22.3167V16.6C49.3369 15.9685 49.2132 15.3431 48.9719 14.7595C48.7307 14.1759 48.3767 13.6456 47.9302 13.1991C47.4836 12.7526 46.9534 12.3986 46.3698 12.1573C45.7862 11.9161 45.1608 11.7924 44.5293 11.7933H41.4026L15.8526 1.15334C15.4182 0.969848 14.9514 0.875079 14.4798 0.874605C14.0082 0.874131 13.5413 0.967962 13.1065 1.15058C12.6717 1.3332 12.2778 1.60091 11.948 1.93798C11.6182 2.27505 11.3591 2.67467 11.1859 3.11334L7.70928 11.7933H5.14261C4.51113 11.7924 3.88567 11.9161 3.30209 12.1573C2.7185 12.3986 2.18825 12.7526 1.74173 13.1991C1.2952 13.6456 0.941182 14.1759 0.699951 14.7595C0.45872 15.3431 0.335021 15.9685 0.335943 16.6V44.32C0.335021 44.9515 0.45872 45.5769 0.699951 46.1605C0.941182 46.7441 1.2952 47.2744 1.74173 47.7209C2.18825 48.1674 2.7185 48.5214 3.30209 48.7627C3.88567 49.0039 4.51113 49.1276 5.14261 49.1267H44.5293C45.1608 49.1276 45.7862 49.0039 46.3698 48.7627C46.9534 48.5214 47.4836 48.1674 47.9302 47.7209C48.3767 47.2744 48.7307 46.7441 48.9719 46.1605C49.2132 45.5769 49.3369 44.9515 49.3359 44.32V38.6033C49.96 38.5817 50.5514 38.3193 50.9864 37.8713C51.4213 37.4233 51.666 36.8244 51.6693 36.2V24.72C51.666 24.0956 51.4213 23.4967 50.9864 23.0487C50.5514 22.6007 49.96 22.3384 49.3359 22.3167ZM13.3559 3.97667C13.4119 3.82472 13.4989 3.68608 13.6114 3.56958C13.7239 3.45308 13.8594 3.36128 14.0093 3.3C14.3095 3.18355 14.6424 3.18355 14.9426 3.3L35.3359 11.7933H29.6893L15.8759 7.19667C15.591 7.09747 15.2787 7.11254 15.0046 7.23871C14.7305 7.36488 14.5159 7.59234 14.4059 7.87334L12.8893 11.7933H10.2293L13.3559 3.97667ZM22.3159 11.7933H15.4093L16.1793 9.76334L22.3159 11.7933ZM47.0026 44.32C47.002 44.9758 46.7412 45.6045 46.2775 46.0682C45.8138 46.5319 45.1851 46.7927 44.5293 46.7933H5.14261C4.48683 46.7927 3.85809 46.5319 3.39438 46.0682C2.93067 45.6045 2.66989 44.9758 2.66928 44.32V16.6C2.67356 15.9454 2.93551 15.3187 3.39843 14.8558C3.86134 14.3929 4.48796 14.131 5.14261 14.1267H44.5293C45.1839 14.131 45.8105 14.3929 46.2735 14.8558C46.7364 15.3187 46.9983 15.9454 47.0026 16.6V22.2933H36.5026C34.3367 22.2933 32.2594 23.1538 30.7279 24.6853C29.1964 26.2168 28.3359 28.2941 28.3359 30.46C28.3359 32.6259 29.1964 34.7032 30.7279 36.2347C32.2594 37.7663 34.3367 38.6267 36.5026 38.6267H47.0026V44.32ZM49.3359 36.2C49.3343 36.2242 49.3239 36.247 49.3068 36.2642C49.2896 36.2813 49.2668 36.2917 49.2426 36.2933H36.5026C34.9555 36.2933 33.4718 35.6788 32.3778 34.5848C31.2839 33.4908 30.6693 32.0071 30.6693 30.46C30.6693 28.9129 31.2839 27.4292 32.3778 26.3352C33.4718 25.2413 34.9555 24.6267 36.5026 24.6267L49.3359 24.72V36.2Z" fill="#5C835D"/>
<path d="M36.5 26.96C35.8078 26.96 35.1311 27.1653 34.5555 27.5499C33.9799 27.9345 33.5313 28.4811 33.2664 29.1206C33.0015 29.7602 32.9322 30.4639 33.0673 31.1428C33.2023 31.8218 33.5356 32.4454 34.0251 32.9349C34.5146 33.4244 35.1383 33.7577 35.8172 33.8928C36.4961 34.0278 37.1999 33.9585 37.8394 33.6936C38.4789 33.4287 39.0256 32.9801 39.4101 32.4045C39.7947 31.8289 40 31.1523 40 30.46C40 29.5318 39.6313 28.6415 38.9749 27.9851C38.3185 27.3288 37.4283 26.96 36.5 26.96ZM36.5 31.6267C36.2693 31.6267 36.0437 31.5583 35.8518 31.4301C35.66 31.3019 35.5104 31.1197 35.4221 30.9065C35.3338 30.6933 35.3107 30.4587 35.3558 30.2324C35.4008 30.0061 35.5119 29.7982 35.675 29.6351C35.8382 29.4719 36.0461 29.3608 36.2724 29.3158C36.4987 29.2708 36.7333 29.2939 36.9465 29.3822C37.1596 29.4705 37.3419 29.62 37.4701 29.8119C37.5982 30.0037 37.6667 30.2293 37.6667 30.46C37.6667 30.7694 37.5438 31.0662 37.325 31.285C37.1062 31.5038 36.8094 31.6267 36.5 31.6267Z" fill="#5C835D"/>
<path d="M14.3359 19.96C14.3359 20.2694 14.213 20.5662 13.9942 20.785C13.7754 21.0038 13.4787 21.1267 13.1693 21.1267H8.5026C8.19318 21.1267 7.89644 21.0038 7.67765 20.785C7.45885 20.5662 7.33594 20.2694 7.33594 19.96C7.33594 19.6506 7.45885 19.3538 7.67765 19.135C7.89644 18.9163 8.19318 18.7933 8.5026 18.7933H13.1693C13.4787 18.7933 13.7754 18.9163 13.9942 19.135C14.213 19.3538 14.3359 19.6506 14.3359 19.96Z" fill="#5C835D"/>
<path d="M19.0026 24.6267C19.0026 24.9361 18.8797 25.2328 18.6609 25.4516C18.4421 25.6704 18.1454 25.7933 17.8359 25.7933H8.5026C8.19318 25.7933 7.89644 25.6704 7.67765 25.4516C7.45885 25.2328 7.33594 24.9361 7.33594 24.6267C7.33594 24.3172 7.45885 24.0205 7.67765 23.8017C7.89644 23.5829 8.19318 23.46 8.5026 23.46H17.8359C18.1454 23.46 18.4421 23.5829 18.6609 23.8017C18.8797 24.0205 19.0026 24.3172 19.0026 24.6267Z" fill="#5C835D"/>
</svg>
