<svg width="16" height="16" viewBox="0 0 16 16" fill="none" xmlns="http://www.w3.org/2000/svg">
<path d="M13.6431 2.35579C12.3117 1.00932 10.5427 0.183215 8.65565 0.0266361C6.76856 -0.129942 4.88767 0.39332 3.35256 1.50195C1.81746 2.61058 0.729294 4.23153 0.28454 6.07213C-0.160214 7.91273 0.067749 9.85169 0.92727 11.5389L0.0851649 15.6274C0.0761481 15.6682 0.0757987 15.7105 0.0841393 15.7515C0.09248 15.7924 0.109325 15.8312 0.133586 15.8653C0.16833 15.9168 0.217994 15.9566 0.275933 15.9791C0.333872 16.0017 0.397323 16.0061 0.457797 15.9916L4.4578 15.0421C6.14043 15.8791 8.06547 16.0919 9.89027 15.6425C11.7151 15.1932 13.3212 14.1109 14.4229 12.5884C15.5245 11.0658 16.0501 9.20171 15.9062 7.32792C15.7622 5.45414 14.958 3.69222 13.6367 2.35579H13.6431ZM12.3925 12.3284C11.4717 13.2476 10.286 13.855 9.00209 14.0654C7.71816 14.2757 6.40059 14.0784 5.23464 13.5011L4.67464 13.2232L2.2178 13.8042V13.7726L2.73569 11.2947L2.46201 10.7558C1.86584 9.58667 1.65535 8.25876 1.86072 6.96259C2.0661 5.66641 2.67679 4.46861 3.60517 3.54105C4.77086 2.37657 6.35116 1.72247 7.99885 1.72247C9.64654 1.72247 11.2268 2.37657 12.3925 3.54105L12.4199 3.57895C13.5704 4.74714 14.2127 6.32267 14.2068 7.9623C14.2009 9.60192 13.5473 11.1728 12.3883 12.3326L12.3925 12.3284Z" fill="white"/>
<path d="M12.1721 10.5263C11.871 11 11.3931 11.579 10.7974 11.7242C9.74473 11.9768 8.14262 11.7242 6.13631 9.86948L6.11105 9.84632C4.36578 8.21685 3.90262 6.85895 4.00578 5.78316C4.06683 5.17053 4.57631 4.61895 5.00578 4.25685C5.07406 4.19927 5.15487 4.15847 5.24174 4.1377C5.3286 4.11692 5.41912 4.11676 5.50607 4.13722C5.59301 4.15767 5.67396 4.19818 5.74245 4.25551C5.81094 4.31284 5.86507 4.38539 5.90052 4.46737L6.54684 5.92843C6.58903 6.02248 6.60485 6.12623 6.59261 6.22858C6.58038 6.33093 6.54054 6.42803 6.47736 6.50948L6.14894 6.93053C6.08068 7.01793 6.04001 7.1237 6.03214 7.23432C6.02426 7.34494 6.04954 7.45539 6.10473 7.55158C6.41669 8.01138 6.78996 8.42644 7.2142 8.78527C7.67065 9.22454 8.1883 9.59541 8.75104 9.88632C8.85375 9.92771 8.96646 9.93761 9.07481 9.91474C9.18316 9.89187 9.28225 9.83727 9.35947 9.7579L9.73631 9.37474C9.80801 9.29763 9.89966 9.24187 10.0011 9.21363C10.1025 9.18539 10.2098 9.18578 10.311 9.21474L11.8479 9.65474C11.935 9.67952 12.015 9.72445 12.0815 9.7859C12.148 9.84735 12.1991 9.92359 12.2307 10.0084C12.2622 10.0933 12.2734 10.1844 12.2632 10.2744C12.253 10.3643 12.2218 10.4507 12.1721 10.5263Z" fill="white"/>
</svg>
