<svg width="67" height="67" viewBox="0 0 67 67" fill="none" xmlns="http://www.w3.org/2000/svg">
<g clip-path="url(#clip0_9963_925)">
<path d="M52.0299 22.0145C50.3763 21.8624 49.0654 20.5535 48.9134 18.8981C48.7613 20.5516 47.4504 21.8624 45.7969 22.0145C47.4504 22.1665 48.7613 23.4754 48.9134 25.1308C49.0654 23.4754 50.3763 22.1665 52.0299 22.0145Z" fill="#5C835D"/>
<path d="M23.1158 22.0145C21.4623 21.8624 20.1514 20.5535 19.9993 18.8981C19.8472 20.5516 18.5363 21.8624 16.8828 22.0145C18.5363 22.1665 19.8472 23.4754 19.9993 25.1308C20.1514 23.4754 21.4623 22.1665 23.1158 22.0145Z" fill="#5C835D"/>
<path d="M34.4603 13.293C36.1815 13.293 37.5768 11.8978 37.5768 10.1767C37.5768 8.45556 36.1815 7.06033 34.4603 7.06033C32.7391 7.06033 31.3438 8.45556 31.3438 10.1767C31.3438 11.8978 32.7391 13.293 34.4603 13.293Z" fill="#5C835D"/>
<path d="M66.9846 32.8821C66.9788 32.6781 66.9731 32.4259 66.9634 32.1237C66.9576 31.9736 66.9596 31.8119 66.9461 31.6368C66.9326 31.4635 66.9192 31.2768 66.9038 31.0805C66.7998 29.5079 66.5361 27.1884 65.7295 24.3493C65.6256 23.9951 65.5236 23.6313 65.41 23.2598C65.2829 22.8922 65.154 22.5168 65.0211 22.1319C64.9884 22.0356 64.9538 21.9394 64.9191 21.8412C64.9018 21.7931 64.8845 21.745 64.8672 21.6949L64.8094 21.5506C64.7324 21.3581 64.6535 21.1617 64.5726 20.9654C64.4109 20.5708 64.2589 20.1647 64.0644 19.7643C63.3484 18.1397 62.4225 16.4497 61.2771 14.7539C60.1318 13.0581 58.7593 11.3585 57.1385 9.74164C55.5176 8.1267 53.6524 6.59067 51.5426 5.24328C49.4348 3.89589 47.0844 2.74098 44.5512 1.84593L44.3144 1.75931C44.2355 1.73044 44.1546 1.70926 44.0738 1.68231C43.9121 1.63227 43.7523 1.58222 43.5906 1.53218C43.2672 1.43401 42.9438 1.32814 42.6166 1.23575C42.2874 1.15106 41.9544 1.06636 41.6233 0.979746C41.4578 0.9374 41.2903 0.895053 41.1228 0.852706C40.9554 0.814209 40.786 0.781487 40.6166 0.74684C40.2778 0.677545 39.939 0.608251 39.5963 0.538957C39.4269 0.50046 39.2537 0.481211 39.0804 0.452339C38.9072 0.425391 38.7359 0.400368 38.5626 0.37342C38.3894 0.346472 38.2161 0.321449 38.0429 0.294501L37.783 0.256004L37.5193 0.229057C37.169 0.194409 36.8167 0.157837 36.4644 0.12319C36.116 0.0808435 35.7464 0.0692944 35.3807 0.050046C35.1978 0.0404217 35.0149 0.0327224 34.8301 0.0230981L34.5549 0.00962423L34.4163 0.00384969C34.3739 0.00192484 34.3277 0 34.2873 0C33.9485 0 33.6097 0.00192484 33.269 0.00192484C33.0996 0.00192484 32.9283 0.00192484 32.757 0.00384969C32.7781 0.00384969 32.6569 0.00192484 32.6453 0.00384969L32.5779 0.00769938L32.4432 0.0153988L32.1718 0.0288727C31.8099 0.0481211 31.448 0.0654447 31.0842 0.0846932L30.9475 0.0923926L30.8108 0.105866L30.5375 0.132814C30.3565 0.152063 30.1737 0.169386 29.9927 0.188635C29.2632 0.248305 28.5375 0.37727 27.806 0.486986C26.3526 0.752614 24.8916 1.07791 23.4614 1.54758C23.2823 1.6034 23.1033 1.65922 22.9224 1.71696L22.7876 1.75931L22.6548 1.80743L22.3892 1.9056C22.035 2.03649 21.6808 2.16738 21.3247 2.29634C20.9724 2.43685 20.624 2.58892 20.2736 2.7352C20.0985 2.80835 19.9233 2.88342 19.7481 2.95849C19.5768 3.04125 19.4036 3.12402 19.2322 3.20679C17.8443 3.84199 16.5142 4.61963 15.2148 5.45501C14.8934 5.67059 14.5738 5.88618 14.2524 6.10176C13.9386 6.32697 13.6287 6.5618 13.3168 6.79278C13.1628 6.91019 13.0031 7.01991 12.8529 7.1431L12.3986 7.5069L11.9463 7.87647L11.7211 8.06125C11.6479 8.12477 11.5767 8.19214 11.5035 8.25566C11.2148 8.51744 10.9241 8.77922 10.6335 9.041L10.5257 9.13916L10.4217 9.24311L10.2119 9.44906L9.79417 9.86098C9.65558 9.99957 9.51506 10.1343 9.37838 10.2748L8.97992 10.7079L8.58145 11.141L8.38126 11.3585C8.31388 11.4297 8.25421 11.5086 8.18876 11.5818C7.93659 11.8821 7.6825 12.1843 7.43033 12.4865C7.30136 12.6347 7.18778 12.7964 7.06651 12.9523L6.70847 13.4239C6.58912 13.5817 6.46785 13.7376 6.35043 13.8955L6.01356 14.3824L5.67669 14.8714L5.5073 15.1158C5.44955 15.1967 5.40143 15.2833 5.34753 15.366C5.13771 15.7029 4.92789 16.0397 4.71999 16.3766L4.64107 16.5036L4.56792 16.6326L4.42162 16.8924L4.13095 17.4121C4.03471 17.5854 3.93461 17.7567 3.84221 17.9338L3.57657 18.467L3.31092 19.0021L3.1781 19.2696C3.13383 19.3582 3.09725 19.4506 3.0549 19.543C2.89321 19.9067 2.73344 20.2725 2.57174 20.6363L2.51207 20.7729L2.45817 20.9134L2.35037 21.1925L2.1367 21.7507C2.06548 21.9375 1.9904 22.1222 1.92496 22.3109L1.73246 22.8806L1.54381 23.4504L1.44949 23.7353C1.41869 23.8296 1.39559 23.9277 1.36672 24.024C1.26085 24.409 1.15305 24.7939 1.04718 25.1808L1.00675 25.3252L0.974028 25.4715L0.908579 25.7641L0.775757 26.3492L0.64486 26.9344L0.540913 27.5253L0.436965 28.1162C0.404241 28.3145 0.363817 28.5108 0.342642 28.7091L0.194421 29.9025C0.182871 30.0026 0.167471 30.1007 0.159771 30.2008L0.136672 30.5049L0.0904729 31.1132L0.0461989 31.7214C0.0365742 31.8254 0.0346492 31.9216 0.0327242 32.0179L0.0250244 32.3085L0 33.475L0.0288743 34.703L0.0365742 35.0033C0.0384991 35.1034 0.0404241 35.2035 0.0500488 35.3036L0.0943228 35.9022L0.138597 36.5008L0.161696 36.8011C0.171321 36.9012 0.184796 36.9994 0.196345 37.0995L0.344567 38.2929C0.363817 38.493 0.406166 38.6894 0.43889 38.8857L0.542837 39.4766L0.646785 40.0676L0.777682 40.6527L0.910504 41.2379L0.975953 41.5305L1.00868 41.6767L1.01638 41.7056L1.04718 41.8211C1.15497 42.2061 1.26085 42.593 1.36672 42.9779C1.39367 43.0742 1.41869 43.1704 1.44949 43.2667L1.53034 43.5092L2.55442 42.4929L3.06645 41.9847L3.24163 41.8115L14.287 30.836L14.3948 36.8281L17.2688 36.0677L10.0848 43.4553H11.6787L35.7849 21.6911L31.2517 32.143L38.4067 30.9919L36.6589 37.9425L39.3634 39.3246L37.4327 43.4572H41.0555L50.0719 34.2622V38.5893L53.6177 36.0061L53.7852 42.2388L59.5389 44.3504C59.4426 44.6044 59.3464 44.8624 59.227 45.1164C59.073 45.4591 58.9267 45.8113 58.7612 46.1655C58.5879 46.5158 58.4109 46.8719 58.2299 47.2357C58.1876 47.3281 58.1356 47.4147 58.0855 47.5052C58.0355 47.5937 57.9854 47.6842 57.9354 47.7747C57.8353 47.9556 57.7333 48.1365 57.6312 48.3194C57.5793 48.4099 57.5311 48.5042 57.4753 48.5946C57.4195 48.6851 57.3637 48.7756 57.3059 48.866C57.1943 49.047 57.0788 49.2318 56.9652 49.4146C56.0316 50.8814 54.9094 52.3635 53.5734 53.7956C52.9093 54.5155 52.1817 55.2084 51.4117 55.8937C51.225 56.0727 51.019 56.2286 50.8188 56.396C50.6186 56.5616 50.4146 56.729 50.2125 56.8965C50.0046 57.0601 49.789 57.2141 49.5772 57.3739C49.4694 57.4528 49.3636 57.5336 49.2558 57.6145C49.148 57.6934 49.0421 57.7781 48.9285 57.8512C48.0373 58.4595 47.1133 59.0639 46.1239 59.597C45.8775 59.7318 45.6291 59.8665 45.3789 60.0032C45.1229 60.1264 44.8669 60.2515 44.6089 60.3766C44.0988 60.6403 43.5579 60.8482 43.0208 61.0811L42.8187 61.1677C42.7513 61.1966 42.682 61.2197 42.6127 61.2447C42.4761 61.2948 42.3375 61.3467 42.1989 61.3987C41.9217 61.4988 41.6464 61.6085 41.3634 61.7048C41.0786 61.7952 40.7937 61.8838 40.5088 61.9742C40.3663 62.0204 40.2219 62.0647 40.0776 62.1109C39.9332 62.1513 39.785 62.1879 39.6387 62.2264C39.3461 62.3034 39.0516 62.3804 38.7551 62.4574C38.6088 62.4997 38.4568 62.5247 38.3066 62.5575C38.1565 62.5883 38.0063 62.621 37.8562 62.6518C37.706 62.6826 37.554 62.7153 37.4038 62.7461L37.1767 62.7942L36.9476 62.8308C36.6415 62.8789 36.3316 62.927 36.0236 62.9752C35.7156 63.031 35.4019 63.056 35.0881 63.0906C34.7743 63.1234 34.4586 63.1599 34.1429 63.1888C33.8253 63.2061 33.5058 63.2235 33.1862 63.2408C33.0265 63.2504 32.8667 63.2581 32.705 63.2677C32.6415 63.2677 32.7223 63.2716 32.6915 63.2716H32.628H32.499H32.243C31.9004 63.2716 31.5577 63.2735 31.2132 63.2735H31.0842L30.9668 63.2677L30.73 63.2562C30.5721 63.2485 30.4143 63.2408 30.2565 63.2331C29.6289 63.2196 28.9667 63.1368 28.3084 63.0772C26.9956 62.9078 25.6674 62.6922 24.3584 62.34C24.1948 62.2976 24.0292 62.2572 23.8637 62.2148L23.7405 62.184L23.6192 62.1475L23.3747 62.0724C23.0494 61.9723 22.7222 61.8722 22.393 61.7721C22.0677 61.6624 21.7481 61.5392 21.4228 61.4218C21.2611 61.3621 21.0994 61.3044 20.9358 61.2447C20.776 61.1773 20.6182 61.11 20.4584 61.0426C20.2987 60.9752 20.1389 60.9079 19.9791 60.8405L19.7385 60.7385C19.6576 60.7058 19.5768 60.6711 19.4998 60.6326C19.186 60.4825 18.8703 60.3304 18.5546 60.1784L18.3179 60.0648C18.239 60.0263 18.1639 59.982 18.085 59.9416C17.931 59.8588 17.777 59.7741 17.621 59.6914C17.3131 59.522 16.9974 59.3641 16.7009 59.1717C16.3987 58.9869 16.0965 58.804 15.7943 58.6192C15.4978 58.4248 15.2052 58.2208 14.9107 58.0225C14.7644 57.9205 14.6123 57.8262 14.4699 57.7184L14.0406 57.397L13.6114 57.0755L13.3958 56.9138C13.3245 56.858 13.2572 56.8003 13.1879 56.7425C12.9107 56.5135 12.6335 56.2844 12.3563 56.0534L12.2523 55.9668L12.1522 55.8744L11.952 55.6915L11.5517 55.3258C11.4188 55.2026 11.2841 55.0833 11.1532 54.9582L10.7701 54.5713L10.3871 54.1844C10.2581 54.0554 10.1291 53.9265 10.0117 53.7879C9.76915 53.5165 9.52468 53.2451 9.28214 52.9737C9.15701 52.8408 9.04729 52.6926 8.92987 52.5521L8.58338 52.1267C8.46788 51.9843 8.35046 51.8438 8.23689 51.6994L7.91157 51.2548L7.58625 50.8101L7.42263 50.5868C7.36681 50.5137 7.32061 50.4348 7.26863 50.3578C7.06459 50.0498 6.86247 49.7438 6.65842 49.4358L6.58142 49.3203L6.5102 49.201L6.36968 48.9623L6.08671 48.4849C5.99431 48.3252 5.89614 48.1673 5.80567 48.0056L5.5458 47.5148L5.28593 47.022L5.15503 46.7757C5.11268 46.6929 5.07611 46.6082 5.03568 46.5235C4.87976 46.1867 4.72384 45.8498 4.56599 45.511L4.50825 45.384L4.45627 45.255L4.35232 44.9971L4.1425 44.4793C4.07898 44.3215 4.01353 44.1656 3.95386 44.0077L2.28492 45.665L2.34267 45.8132L2.45047 46.0923L2.50437 46.2329L2.56404 46.3695C2.72574 46.7352 2.88551 47.099 3.0472 47.4628C3.08763 47.5533 3.12613 47.6457 3.1704 47.7362L3.30322 48.0037L3.56887 48.5388L3.83451 49.072C3.92691 49.2472 4.02701 49.4185 4.12325 49.5936L4.41392 50.1133L4.56022 50.3732L4.63337 50.5022L4.71614 50.6234C4.92596 50.9603 5.13578 51.2971 5.34368 51.634C5.39758 51.7167 5.4457 51.8034 5.50345 51.8842L5.67284 52.1287L6.00971 52.6176L6.34658 53.1045C6.464 53.2643 6.58527 53.4183 6.70462 53.5761L7.06266 54.0477C7.18393 54.2036 7.29751 54.3653 7.42648 54.5135C7.68057 54.8157 7.93274 55.1179 8.18491 55.4182C8.24844 55.4933 8.31003 55.5703 8.37741 55.6415L8.5776 55.859L8.97607 56.2921L9.37453 56.7252C9.51121 56.8657 9.65173 57.0024 9.79032 57.139L10.208 57.5509L10.4179 57.7569L10.5218 57.8608L10.6296 57.959C10.9203 58.2208 11.2109 58.4826 11.4997 58.7443C11.5728 58.8098 11.6441 58.8752 11.7172 58.9388L11.9424 59.1235L12.3948 59.4931L12.8472 59.8627C12.9973 59.9859 13.1571 60.0956 13.3111 60.213C13.6229 60.444 13.9328 60.6769 14.2466 60.904C14.5681 61.1196 14.8895 61.3352 15.2091 61.5508C16.5084 62.3842 17.8386 63.1619 19.2265 63.799C19.3978 63.8818 19.571 63.9645 19.7423 64.0473C19.9175 64.1224 20.0927 64.1955 20.2679 64.2706C20.6182 64.4169 20.9666 64.5689 21.3189 64.7094C21.675 64.8403 22.0292 64.9712 22.3834 65.1021L22.649 65.2003L22.7818 65.2484L22.9166 65.2907C23.0956 65.3466 23.2766 65.4024 23.4556 65.4601C24.8858 65.9298 26.3469 66.2532 27.8002 66.5207C28.5336 66.6304 29.2497 66.7594 30.0062 66.8191C30.1929 66.8383 30.3796 66.8556 30.5664 66.8749L30.8455 66.9018L30.986 66.9153L31.115 66.923C31.4595 66.9403 31.8022 66.9596 32.1448 66.9769L32.4009 66.9904L32.5298 66.9981L32.5933 67.0019C32.603 67.0039 32.7281 67.0039 32.7069 67.0039C32.8879 67.0039 33.0669 67.0039 33.2478 67.0039C33.6078 67.0039 33.9678 67.0039 34.3258 67.0039C34.6838 66.9923 35.04 66.9711 35.3961 66.9538C35.7522 66.9346 36.1083 66.923 36.4606 66.8807C36.8129 66.8441 37.1651 66.8094 37.5155 66.7748L37.7792 66.7478L38.039 66.7094C38.2123 66.6824 38.3855 66.6574 38.5588 66.6304C38.732 66.6035 38.9053 66.5785 39.0766 66.5515C39.2479 66.5226 39.4231 66.5034 39.5925 66.4649C39.9332 66.3956 40.2739 66.3263 40.6127 66.257C40.7821 66.2224 40.9515 66.1896 41.119 66.1512C41.2864 66.1088 41.452 66.0665 41.6195 66.0241C41.9525 65.9394 42.2836 65.8528 42.6127 65.7681C42.94 65.6757 43.2634 65.5698 43.5868 65.4717C43.7485 65.4216 43.9102 65.3716 44.0699 65.3215C44.1508 65.2965 44.2316 65.2734 44.3106 65.2445L44.5473 65.1579C47.0786 64.2629 49.429 63.108 51.5388 61.7606C53.6485 60.4132 55.5138 58.8772 57.1346 57.2622C58.7554 55.6453 60.1298 53.9457 61.2733 52.2499C62.4186 50.5541 63.3445 48.8641 64.0606 47.2395C64.255 46.8392 64.4071 46.433 64.5688 46.0384C64.6477 45.8402 64.7266 45.6458 64.8056 45.4533L64.8633 45.3089C64.8691 45.2935 64.8729 45.2801 64.8787 45.2647C64.8903 45.23 64.9037 45.1954 64.9153 45.1626C64.9499 45.0664 64.9827 44.9682 65.0173 44.872C65.1501 44.487 65.2791 44.1117 65.4061 43.744C65.4466 43.6131 65.4831 43.4861 65.5197 43.3571L62.8074 40.2678L52.2317 28.2278L49.0325 31.5193L36.3663 16.4209L20.2428 33.0765L14.7317 27.4175L2.74691 39.9059L2.68916 39.6557L2.58907 39.1032L2.48704 38.5508C2.45432 38.366 2.41389 38.1831 2.39464 37.9964L2.24835 36.88C2.2368 36.7876 2.22332 36.6933 2.2137 36.6009L2.19252 36.3199L2.14825 35.7578L2.10398 35.1958C2.09435 35.1015 2.09243 35.0091 2.0905 34.9148L2.0828 34.6337L2.052 33.5327L2.0828 32.3682L2.0905 32.0775C2.09243 31.9794 2.09435 31.8831 2.10398 31.7927L2.14825 31.2402L2.1906 30.6878L2.21177 30.4125C2.21947 30.3202 2.23487 30.2258 2.24642 30.1334L2.39272 29.017C2.41197 28.8303 2.45432 28.6475 2.48512 28.4627L2.58714 27.9103L2.68724 27.3578L2.81621 26.8112L2.94518 26.2645L3.01063 25.9912L3.04335 25.8545L3.08185 25.7198C3.1858 25.3598 3.29167 25.0018 3.39562 24.6438C3.42257 24.5552 3.44567 24.4629 3.47647 24.3762L3.56887 24.1125L3.75174 23.5832L3.93461 23.0539C4.00006 22.8787 4.07321 22.7074 4.1425 22.5342L4.35232 22.0164L4.45627 21.7584L4.50825 21.6295L4.56599 21.5024C4.72192 21.1656 4.87784 20.8268 5.03568 20.49C5.07611 20.4053 5.11268 20.3206 5.15503 20.2378L5.28593 19.9914L5.5458 19.4987L5.80567 19.0078C5.89614 18.8462 5.99239 18.6883 6.08671 18.5286L6.36968 18.0512L6.5102 17.8125L6.58142 17.6932L6.65842 17.5777C6.86247 17.2697 7.06651 16.9617 7.26863 16.6557C7.32061 16.5787 7.36873 16.4998 7.42263 16.4266L7.58625 16.2033L7.91157 15.7587L8.23689 15.3141C8.35046 15.1697 8.46788 15.0292 8.58338 14.8868L8.92987 14.4614C9.04729 14.3208 9.15509 14.1746 9.28214 14.0398C9.52661 13.7684 9.76915 13.497 10.0117 13.2256C10.131 13.087 10.26 12.9581 10.3871 12.8291L10.7701 12.4422L11.1532 12.0553C11.2841 11.9302 11.4188 11.8089 11.5517 11.6877L11.952 11.3219L12.1522 11.1391L12.2523 11.0467L12.3563 10.9601C12.6335 10.731 12.9107 10.5 13.1879 10.271C13.2572 10.2132 13.3245 10.1555 13.3958 10.0997L13.6114 9.93797L14.0406 9.61653L14.4699 9.29508C14.6123 9.18729 14.7644 9.09297 14.9107 8.99095C15.2071 8.79269 15.4978 8.58866 15.7943 8.39425C16.0965 8.20946 16.3987 8.02468 16.7009 7.84182C16.9974 7.65126 17.3131 7.4915 17.621 7.32211C17.775 7.23742 17.929 7.15465 18.085 7.07188C18.162 7.03146 18.237 6.98719 18.3179 6.94869L18.5546 6.83512C18.8703 6.68306 19.1841 6.53292 19.4998 6.38086C19.5768 6.34236 19.6576 6.30772 19.7385 6.27499L19.9791 6.17298C20.1389 6.10561 20.2987 6.03824 20.4584 5.97087C20.6182 5.9035 20.778 5.83613 20.9358 5.76876C21.0975 5.70909 21.2611 5.64942 21.4228 5.59167C21.7481 5.47618 22.0677 5.35107 22.393 5.24135C22.7203 5.14126 23.0475 5.04117 23.3747 4.94108L23.6192 4.86601L23.7405 4.82944L23.8637 4.79864C24.0292 4.75629 24.1928 4.71587 24.3584 4.67352C25.6674 4.31935 26.9956 4.10377 28.3084 3.93631C28.9687 3.87664 29.6212 3.79387 30.2757 3.77847C30.4393 3.77077 30.601 3.76307 30.7646 3.75537L31.0091 3.74382L31.1304 3.73805H31.2517C31.577 3.73997 31.9004 3.73997 32.2238 3.7419H32.4663H32.5876H32.6472C32.6761 3.7419 32.5991 3.7419 32.6626 3.74382C32.834 3.75345 33.0034 3.76115 33.1728 3.77077C33.5135 3.78809 33.8523 3.80734 34.1891 3.82467C34.2334 3.82659 34.2719 3.83044 34.3085 3.83429L34.424 3.84776L34.653 3.87279C34.8051 3.89011 34.9572 3.90551 35.1093 3.92283C35.4134 3.95556 35.7118 3.98058 36.0255 4.0364C36.3355 4.08452 36.6435 4.13264 36.9495 4.18076L37.1786 4.21734L37.4057 4.26546C37.5578 4.29625 37.708 4.32898 37.8581 4.35977C38.0082 4.39057 38.1584 4.42329 38.3085 4.45409C38.4587 4.48681 38.6088 4.51184 38.7571 4.55418C39.0516 4.63118 39.3461 4.70817 39.6406 4.78516C39.7869 4.82366 39.9332 4.86023 40.0795 4.90066C40.2239 4.94685 40.3663 4.99112 40.5107 5.03732C40.7975 5.12779 41.0824 5.21825 41.3654 5.3068C41.6464 5.40304 41.9236 5.51276 42.2008 5.61285C42.3394 5.66482 42.4761 5.71486 42.6147 5.76684C42.684 5.79378 42.7533 5.81688 42.8206 5.84383L43.0228 5.93045C43.5598 6.16335 44.0988 6.37124 44.6108 6.63494C44.8688 6.76006 45.1267 6.88325 45.3808 7.00836C45.6311 7.14502 45.8775 7.27976 46.1258 7.4145C47.1171 7.94769 48.0411 8.55209 48.9304 9.16034C49.044 9.23348 49.148 9.31817 49.2577 9.39709C49.3655 9.47794 49.4714 9.55686 49.5792 9.6377C49.7928 9.79939 50.0084 9.95337 50.2144 10.1151C50.4184 10.2825 50.6206 10.45 50.8208 10.6155C51.021 10.783 51.2269 10.9389 51.4136 11.1179C52.1817 11.8031 52.9113 12.4961 53.5754 13.216C54.9113 14.6481 56.0335 16.1302 56.9671 17.5969C57.0807 17.7817 57.1943 17.9646 57.3078 18.1474C57.3637 18.2379 57.4214 18.3284 57.4772 18.4188C57.5331 18.5093 57.5812 18.6036 57.6332 18.6941C57.7352 18.877 57.8372 19.0598 57.9373 19.2388C57.9874 19.3293 58.0374 19.4178 58.0875 19.5083C58.1375 19.5968 58.1895 19.6854 58.2318 19.7778C58.4128 20.1416 58.5899 20.4977 58.7631 20.848C58.9287 21.2022 59.0769 21.5544 59.229 21.897C59.3887 22.2358 59.5081 22.5842 59.639 22.9191C59.7025 23.0866 59.7679 23.2521 59.8295 23.4177L59.8777 23.5409L59.9181 23.664C59.945 23.7468 59.972 23.8296 59.9989 23.9104C60.1067 24.2357 60.2126 24.5552 60.3146 24.8651C60.4013 25.1808 60.4879 25.4888 60.5707 25.7871C60.613 25.9373 60.6534 26.0836 60.6938 26.2299C60.7304 26.3762 60.7593 26.5224 60.792 26.6668C60.8575 26.9536 60.9191 27.2327 60.9807 27.5022C60.9961 27.5696 61.0134 27.6369 61.0249 27.7024C61.0365 27.7697 61.048 27.8352 61.0596 27.9026C61.0827 28.0354 61.1058 28.1643 61.127 28.2914C61.1712 28.5474 61.2155 28.7938 61.2559 29.0305C61.3214 29.5079 61.3695 29.9525 61.4234 30.3587C61.4542 30.5608 61.4619 30.7571 61.4773 30.9419C61.4908 31.1267 61.5043 31.3038 61.5158 31.4693C61.5293 31.6348 61.5408 31.7927 61.5524 31.939C61.5639 32.0852 61.5601 32.2238 61.5658 32.3489C61.5716 32.603 61.5774 32.8167 61.5813 32.9899C61.589 33.2786 61.5928 33.448 61.5947 33.4962C61.5928 33.577 61.589 33.7483 61.5832 34.0139C61.5793 34.2026 61.5736 34.4355 61.5658 34.7127C61.5639 34.7819 61.562 34.8532 61.5601 34.9282C61.5582 35.0033 61.5582 35.0841 61.5505 35.1496C61.5389 35.2901 61.5274 35.4383 61.5158 35.5962C61.5139 35.6193 61.512 35.6443 61.51 35.6693L66.1626 40.9665C66.1896 40.8548 66.2146 40.7413 66.2416 40.6316C66.2589 40.5507 66.2801 40.4718 66.2955 40.3929C66.3109 40.314 66.3243 40.235 66.3397 40.1561C66.3686 40.0002 66.3975 39.8462 66.4244 39.6942C66.4803 39.392 66.5322 39.0994 66.5842 38.8183C66.667 38.2524 66.7305 37.725 66.794 37.2438C66.8287 37.0071 66.8422 36.7607 66.8614 36.5336C66.8787 36.3045 66.8961 36.0889 66.9115 35.8849C66.9269 35.6809 66.9403 35.4884 66.9538 35.3074C66.9615 35.2131 66.9634 35.138 66.9654 35.063C66.9673 34.9879 66.9692 34.9167 66.9711 34.8474C66.9788 34.5702 66.9846 34.3373 66.9904 34.1487C67 33.7733 67.0058 33.5789 67.0058 33.5789V33.5096C67 33.5 66.9942 33.2902 66.9846 32.8821Z" fill="#5C835D"/>
</g>
<defs>
<clipPath id="clip0_9963_925">
<rect width="67" height="67" fill="white"/>
</clipPath>
</defs>
</svg>
